<svg xmlns="http://www.w3.org/2000/svg" viewBox="0 0 500 75" xmlns:bx="https://boxy-svg.com" width="500px" height="75px"><defs><bx:export><bx:file format="svg"/></bx:export></defs><path d="M 35.08 67.487 L 35.08 13.822 L 15.033 13.822 L 15.033 6.642 L 63.261 6.642 L 63.261 13.822 L 43.131 13.822 L 43.131 67.487 L 35.08 67.487 Z" style="fill: rgb(51, 51, 51);"/><path d="M 58.359 45.448 C 58.359 37.286 60.628 31.241 65.165 27.311 C 68.956 24.047 73.576 22.414 79.027 22.414 C 85.087 22.414 90.04 24.4 93.886 28.37 C 97.732 32.34 99.655 37.826 99.655 44.826 C 99.655 50.498 98.804 54.96 97.102 58.211 C 95.401 61.463 92.924 63.987 89.673 65.785 C 86.422 67.584 82.874 68.483 79.027 68.483 C 72.857 68.483 67.87 66.505 64.065 62.548 C 60.261 58.592 58.359 52.892 58.359 45.448 Z M 66.037 45.448 C 66.037 51.093 67.268 55.32 69.731 58.128 C 72.193 60.937 75.292 62.341 79.027 62.341 C 82.735 62.341 85.82 60.93 88.283 58.107 C 90.746 55.285 91.977 50.983 91.977 45.199 C 91.977 39.749 90.739 35.619 88.262 32.81 C 85.785 30.002 82.707 28.598 79.027 28.598 C 75.292 28.598 72.193 29.996 69.731 32.79 C 67.268 35.585 66.037 39.804 66.037 45.448 Z" style="fill: rgb(51, 51, 51);"/><path d="M 108.458 67.487 L 108.458 6.642 L 115.929 6.642 L 115.929 41.34 L 133.61 23.41 L 143.28 23.41 L 126.429 39.762 L 144.982 67.487 L 135.768 67.487 L 121.2 44.95 L 115.929 50.014 L 115.929 67.487 L 108.458 67.487 Z" style="fill: rgb(51, 51, 51);"/><path d="M 181.085 53.293 L 188.805 54.247 C 187.588 58.757 185.333 62.258 182.04 64.748 C 178.747 67.238 174.542 68.483 169.423 68.483 C 162.976 68.483 157.864 66.498 154.087 62.527 C 150.31 58.557 148.422 52.988 148.422 45.822 C 148.422 38.407 150.331 32.652 154.149 28.556 C 157.968 24.462 162.921 22.414 169.008 22.414 C 174.901 22.414 179.716 24.42 183.451 28.432 C 187.186 32.444 189.054 38.089 189.054 45.365 C 189.054 45.808 189.04 46.472 189.013 47.358 L 156.141 47.358 C 156.418 52.2 157.788 55.908 160.25 58.481 C 162.713 61.055 165.784 62.341 169.464 62.341 C 172.203 62.341 174.541 61.622 176.478 60.182 C 178.415 58.744 179.951 56.447 181.085 53.293 Z M 156.557 41.215 L 181.168 41.215 C 180.836 37.508 179.895 34.727 178.346 32.873 C 175.967 29.995 172.882 28.556 169.091 28.556 C 165.66 28.556 162.775 29.705 160.437 32.001 C 158.099 34.298 156.806 37.369 156.557 41.215 Z" style="fill: rgb(51, 51, 51);"/><path d="M 198.189 67.487 L 198.189 23.41 L 204.913 23.41 L 204.913 29.677 C 208.15 24.835 212.826 22.414 218.941 22.414 C 221.598 22.414 224.04 22.892 226.267 23.846 C 228.494 24.801 230.161 26.053 231.268 27.602 C 232.375 29.152 233.149 30.992 233.592 33.122 C 233.869 34.506 234.007 36.927 234.007 40.385 L 234.007 67.487 L 226.537 67.487 L 226.537 40.675 C 226.537 37.632 226.246 35.356 225.665 33.848 C 225.084 32.34 224.053 31.137 222.573 30.237 C 221.093 29.338 219.357 28.888 217.364 28.888 C 214.182 28.888 211.436 29.898 209.126 31.918 C 206.815 33.938 205.66 37.771 205.66 43.415 L 205.66 67.487 L 198.189 67.487 Z" style="fill: rgb(51, 51, 51);"/><path d="M 246.089 67.487 L 246.089 6.642 L 268.917 6.642 C 273.565 6.642 277.293 7.258 280.102 8.489 C 282.911 9.721 285.11 11.616 286.701 14.175 C 288.292 16.735 289.088 19.412 289.088 22.206 C 289.088 24.808 288.382 27.256 286.971 29.552 C 285.56 31.849 283.429 33.703 280.579 35.114 C 284.259 36.194 287.088 38.034 289.067 40.634 C 291.045 43.235 292.034 46.306 292.034 49.848 C 292.034 52.698 291.432 55.348 290.229 57.796 C 289.025 60.245 287.538 62.133 285.767 63.461 C 283.996 64.789 281.776 65.792 279.106 66.47 C 276.436 67.148 273.164 67.487 269.29 67.487 L 246.089 67.487 Z M 254.141 32.209 L 267.298 32.209 C 270.867 32.209 273.427 31.974 274.976 31.503 C 277.023 30.895 278.566 29.885 279.604 28.473 C 280.641 27.063 281.16 25.292 281.16 23.161 C 281.16 21.141 280.676 19.364 279.708 17.828 C 278.739 16.292 277.356 15.241 275.557 14.673 C 273.758 14.106 270.673 13.822 266.302 13.822 L 254.141 13.822 L 254.141 32.209 Z M 254.141 60.307 L 269.29 60.307 C 271.891 60.307 273.718 60.21 274.769 60.016 C 276.622 59.684 278.172 59.131 279.417 58.356 C 280.662 57.582 281.686 56.454 282.488 54.974 C 283.291 53.494 283.692 51.785 283.692 49.848 C 283.692 47.58 283.111 45.608 281.949 43.934 C 280.787 42.26 279.175 41.084 277.114 40.406 C 275.053 39.728 272.085 39.389 268.211 39.389 L 254.141 39.389 L 254.141 60.307 Z" style="fill: rgb(255, 0, 87);"/><path d="M 330.921 62.05 C 328.154 64.402 325.491 66.062 322.932 67.03 C 320.372 67.999 317.626 68.483 314.693 68.483 C 309.851 68.483 306.129 67.301 303.528 64.935 C 300.927 62.569 299.627 59.546 299.627 55.866 C 299.627 53.708 300.118 51.737 301.1 49.952 C 302.083 48.168 303.369 46.736 304.96 45.656 C 306.551 44.577 308.343 43.761 310.335 43.207 C 311.802 42.82 314.015 42.447 316.976 42.087 C 323.008 41.368 327.449 40.51 330.298 39.513 C 330.326 38.49 330.34 37.84 330.34 37.563 C 330.34 34.519 329.634 32.375 328.223 31.13 C 326.314 29.442 323.478 28.598 319.715 28.598 C 316.201 28.598 313.607 29.214 311.933 30.445 C 310.259 31.677 309.021 33.856 308.218 36.982 L 300.914 35.986 C 301.578 32.86 302.671 30.335 304.193 28.411 C 305.714 26.489 307.914 25.008 310.792 23.97 C 313.669 22.933 317.003 22.414 320.794 22.414 C 324.557 22.414 327.615 22.857 329.966 23.742 C 332.318 24.628 334.047 25.741 335.154 27.083 C 336.261 28.425 337.036 30.12 337.479 32.167 C 337.728 33.44 337.852 35.737 337.852 39.057 L 337.852 49.018 C 337.852 55.963 338.011 60.355 338.329 62.195 C 338.648 64.035 339.277 65.799 340.218 67.487 L 332.415 67.487 C 331.64 65.938 331.142 64.126 330.921 62.05 Z M 330.298 45.365 C 327.587 46.473 323.519 47.414 318.096 48.188 C 315.025 48.631 312.853 49.129 311.58 49.682 C 310.307 50.236 309.325 51.045 308.633 52.11 C 307.942 53.176 307.596 54.358 307.596 55.658 C 307.596 57.651 308.35 59.311 309.858 60.639 C 311.366 61.967 313.573 62.631 316.478 62.631 C 319.355 62.631 321.915 62.002 324.156 60.743 C 326.397 59.484 328.044 57.761 329.095 55.575 C 329.897 53.888 330.298 51.398 330.298 48.105 L 330.298 45.365 Z" style="fill: rgb(255, 0, 87);"/><path d="M 378.191 51.342 L 385.537 52.297 C 384.734 57.361 382.68 61.324 379.373 64.187 C 376.067 67.051 372.007 68.483 367.192 68.483 C 361.16 68.483 356.311 66.512 352.645 62.569 C 348.979 58.626 347.146 52.974 347.146 45.614 C 347.146 40.856 347.934 36.692 349.511 33.122 C 351.088 29.553 353.489 26.876 356.712 25.091 C 359.936 23.307 363.443 22.414 367.234 22.414 C 372.021 22.414 375.936 23.625 378.979 26.045 C 382.023 28.467 383.974 31.905 384.831 36.359 L 377.568 37.48 C 376.876 34.52 375.652 32.292 373.895 30.798 C 372.138 29.304 370.014 28.556 367.524 28.556 C 363.761 28.556 360.704 29.905 358.352 32.603 C 356 35.301 354.824 39.569 354.824 45.407 C 354.824 51.329 355.958 55.631 358.227 58.315 C 360.496 60.999 363.457 62.341 367.109 62.341 C 370.042 62.341 372.49 61.442 374.455 59.643 C 376.42 57.845 377.665 55.078 378.191 51.342 Z" style="fill: rgb(255, 0, 87);"/><path d="M 389.151 45.448 C 389.151 37.286 391.42 31.241 395.957 27.311 C 399.748 24.047 404.369 22.414 409.82 22.414 C 415.879 22.414 420.832 24.4 424.678 28.37 C 428.524 32.34 430.447 37.826 430.447 44.826 C 430.447 50.498 429.596 54.96 427.895 58.211 C 426.193 61.463 423.717 63.987 420.466 65.785 C 417.215 67.584 413.666 68.483 409.82 68.483 C 403.649 68.483 398.662 66.505 394.858 62.548 C 391.053 58.592 389.151 52.892 389.151 45.448 Z M 396.829 45.448 C 396.829 51.093 398.06 55.32 400.523 58.128 C 402.986 60.937 406.085 62.341 409.82 62.341 C 413.527 62.341 416.612 60.93 419.075 58.107 C 421.538 55.285 422.769 50.983 422.769 45.199 C 422.769 39.749 421.531 35.619 419.054 32.81 C 416.578 30.002 413.5 28.598 409.82 28.598 C 406.085 28.598 402.986 29.996 400.523 32.79 C 398.06 35.585 396.829 39.804 396.829 45.448 Z" style="fill: rgb(255, 0, 87);"/><path d="M 439.201 67.487 L 439.201 23.41 L 445.925 23.41 L 445.925 29.677 C 449.162 24.835 453.838 22.414 459.953 22.414 C 462.609 22.414 465.051 22.892 467.279 23.846 C 469.506 24.801 471.173 26.053 472.28 27.602 C 473.387 29.152 474.161 30.992 474.604 33.122 C 474.881 34.506 475.019 36.927 475.019 40.385 L 475.019 67.487 L 467.548 67.487 L 467.548 40.675 C 467.548 37.632 467.258 35.356 466.677 33.848 C 466.096 32.34 465.065 31.137 463.585 30.237 C 462.104 29.338 460.368 28.888 458.376 28.888 C 455.194 28.888 452.448 29.898 450.137 31.918 C 447.827 33.938 446.672 37.771 446.672 43.415 L 446.672 67.487 L 439.201 67.487 Z" style="fill: rgb(255, 0, 87);"/></svg>
