<svg xmlns="http://www.w3.org/2000/svg" viewBox="0 0 500 130" xmlns:bx="https://boxy-svg.com" width="500px" height="130px"><defs><bx:export><bx:file format="svg"/></bx:export></defs><path d="M 35.08 96.571 L 35.08 42.906 L 15.033 42.906 L 15.033 35.726 L 63.261 35.726 L 63.261 42.906 L 43.131 42.906 L 43.131 96.571 L 35.08 96.571 Z" style="fill: rgb(51, 51, 51);"/><path d="M 58.359 74.532 C 58.359 66.37 60.628 60.325 65.165 56.395 C 68.956 53.131 73.576 51.498 79.027 51.498 C 85.087 51.498 90.04 53.484 93.886 57.454 C 97.732 61.424 99.655 66.91 99.655 73.91 C 99.655 79.582 98.804 84.044 97.102 87.295 C 95.401 90.547 92.924 93.071 89.673 94.869 C 86.422 96.668 82.874 97.567 79.027 97.567 C 72.857 97.567 67.87 95.589 64.065 91.632 C 60.261 87.676 58.359 81.976 58.359 74.532 Z M 66.037 74.532 C 66.037 80.177 67.268 84.404 69.731 87.212 C 72.193 90.021 75.292 91.425 79.027 91.425 C 82.735 91.425 85.82 90.014 88.283 87.191 C 90.746 84.369 91.977 80.067 91.977 74.283 C 91.977 68.833 90.739 64.703 88.262 61.894 C 85.785 59.086 82.707 57.682 79.027 57.682 C 75.292 57.682 72.193 59.08 69.731 61.874 C 67.268 64.669 66.037 68.888 66.037 74.532 Z" style="fill: rgb(51, 51, 51);"/><path d="M 108.458 96.571 L 108.458 35.726 L 115.929 35.726 L 115.929 70.424 L 133.61 52.494 L 143.28 52.494 L 126.429 68.846 L 144.982 96.571 L 135.768 96.571 L 121.2 74.034 L 115.929 79.098 L 115.929 96.571 L 108.458 96.571 Z" style="fill: rgb(51, 51, 51);"/><path d="M 181.085 82.377 L 188.805 83.331 C 187.588 87.841 185.333 91.342 182.04 93.832 C 178.747 96.322 174.542 97.567 169.423 97.567 C 162.976 97.567 157.864 95.582 154.087 91.611 C 150.31 87.641 148.422 82.072 148.422 74.906 C 148.422 67.491 150.331 61.736 154.149 57.64 C 157.968 53.546 162.921 51.498 169.008 51.498 C 174.901 51.498 179.716 53.504 183.451 57.516 C 187.186 61.528 189.054 67.173 189.054 74.449 C 189.054 74.892 189.04 75.556 189.013 76.442 L 156.141 76.442 C 156.418 81.284 157.788 84.992 160.25 87.565 C 162.713 90.139 165.784 91.425 169.464 91.425 C 172.203 91.425 174.541 90.706 176.478 89.266 C 178.415 87.828 179.951 85.531 181.085 82.377 Z M 156.557 70.299 L 181.168 70.299 C 180.836 66.592 179.895 63.811 178.346 61.957 C 175.967 59.079 172.882 57.64 169.091 57.64 C 165.66 57.64 162.775 58.789 160.437 61.085 C 158.099 63.382 156.806 66.453 156.557 70.299 Z" style="fill: rgb(51, 51, 51);"/><path d="M 198.189 96.571 L 198.189 52.494 L 204.913 52.494 L 204.913 58.761 C 208.15 53.919 212.826 51.498 218.941 51.498 C 221.598 51.498 224.04 51.976 226.267 52.93 C 228.494 53.885 230.161 55.137 231.268 56.686 C 232.375 58.236 233.149 60.076 233.592 62.206 C 233.869 63.59 234.007 66.011 234.007 69.469 L 234.007 96.571 L 226.537 96.571 L 226.537 69.759 C 226.537 66.716 226.246 64.44 225.665 62.932 C 225.084 61.424 224.053 60.221 222.573 59.321 C 221.093 58.422 219.357 57.972 217.364 57.972 C 214.182 57.972 211.436 58.982 209.126 61.002 C 206.815 63.022 205.66 66.855 205.66 72.499 L 205.66 96.571 L 198.189 96.571 Z" style="fill: rgb(51, 51, 51);"/><path d="M 246.089 96.571 L 246.089 35.726 L 268.917 35.726 C 273.565 35.726 277.293 36.342 280.102 37.573 C 282.911 38.805 285.11 40.7 286.701 43.259 C 288.292 45.819 289.088 48.496 289.088 51.29 C 289.088 53.892 288.382 56.34 286.971 58.636 C 285.56 60.933 283.429 62.787 280.579 64.198 C 284.259 65.278 287.088 67.118 289.067 69.718 C 291.045 72.319 292.034 75.39 292.034 78.932 C 292.034 81.782 291.432 84.432 290.229 86.88 C 289.025 89.329 287.538 91.217 285.767 92.545 C 283.996 93.873 281.776 94.876 279.106 95.554 C 276.436 96.232 273.164 96.571 269.29 96.571 L 246.089 96.571 Z M 254.141 61.293 L 267.298 61.293 C 270.867 61.293 273.427 61.058 274.976 60.587 C 277.023 59.979 278.566 58.969 279.604 57.557 C 280.641 56.147 281.16 54.376 281.16 52.245 C 281.16 50.225 280.676 48.448 279.708 46.912 C 278.739 45.376 277.356 44.325 275.557 43.757 C 273.758 43.19 270.673 42.906 266.302 42.906 L 254.141 42.906 L 254.141 61.293 Z M 254.141 89.391 L 269.29 89.391 C 271.891 89.391 273.718 89.294 274.769 89.1 C 276.622 88.768 278.172 88.215 279.417 87.44 C 280.662 86.666 281.686 85.538 282.488 84.058 C 283.291 82.578 283.692 80.869 283.692 78.932 C 283.692 76.664 283.111 74.692 281.949 73.018 C 280.787 71.344 279.175 70.168 277.114 69.49 C 275.053 68.812 272.085 68.473 268.211 68.473 L 254.141 68.473 L 254.141 89.391 Z" style="fill: rgb(255, 0, 87);"/><path d="M 330.921 91.134 C 328.154 93.486 325.491 95.146 322.932 96.114 C 320.372 97.083 317.626 97.567 314.693 97.567 C 309.851 97.567 306.129 96.385 303.528 94.019 C 300.927 91.653 299.627 88.63 299.627 84.95 C 299.627 82.792 300.118 80.821 301.1 79.036 C 302.083 77.252 303.369 75.82 304.96 74.74 C 306.551 73.661 308.343 72.845 310.335 72.291 C 311.802 71.904 314.015 71.531 316.976 71.171 C 323.008 70.452 327.449 69.594 330.298 68.597 C 330.326 67.574 330.34 66.924 330.34 66.647 C 330.34 63.603 329.634 61.459 328.223 60.214 C 326.314 58.526 323.478 57.682 319.715 57.682 C 316.201 57.682 313.607 58.298 311.933 59.529 C 310.259 60.761 309.021 62.94 308.218 66.066 L 300.914 65.07 C 301.578 61.944 302.671 59.419 304.193 57.495 C 305.714 55.573 307.914 54.092 310.792 53.054 C 313.669 52.017 317.003 51.498 320.794 51.498 C 324.557 51.498 327.615 51.941 329.966 52.826 C 332.318 53.712 334.047 54.825 335.154 56.167 C 336.261 57.509 337.036 59.204 337.479 61.251 C 337.728 62.524 337.852 64.821 337.852 68.141 L 337.852 78.102 C 337.852 85.047 338.011 89.439 338.329 91.279 C 338.648 93.119 339.277 94.883 340.218 96.571 L 332.415 96.571 C 331.64 95.022 331.142 93.21 330.921 91.134 Z M 330.298 74.449 C 327.587 75.557 323.519 76.498 318.096 77.272 C 315.025 77.715 312.853 78.213 311.58 78.766 C 310.307 79.32 309.325 80.129 308.633 81.194 C 307.942 82.26 307.596 83.442 307.596 84.742 C 307.596 86.735 308.35 88.395 309.858 89.723 C 311.366 91.051 313.573 91.715 316.478 91.715 C 319.355 91.715 321.915 91.086 324.156 89.827 C 326.397 88.568 328.044 86.845 329.095 84.659 C 329.897 82.972 330.298 80.482 330.298 77.189 L 330.298 74.449 Z" style="fill: rgb(255, 0, 87);"/><path d="M 378.191 80.426 L 385.537 81.381 C 384.734 86.445 382.68 90.408 379.373 93.271 C 376.067 96.135 372.007 97.567 367.192 97.567 C 361.16 97.567 356.311 95.596 352.645 91.653 C 348.979 87.71 347.146 82.058 347.146 74.698 C 347.146 69.94 347.934 65.776 349.511 62.206 C 351.088 58.637 353.489 55.96 356.712 54.175 C 359.936 52.391 363.443 51.498 367.234 51.498 C 372.021 51.498 375.936 52.709 378.979 55.129 C 382.023 57.551 383.974 60.989 384.831 65.443 L 377.568 66.564 C 376.876 63.604 375.652 61.376 373.895 59.882 C 372.138 58.388 370.014 57.64 367.524 57.64 C 363.761 57.64 360.704 58.989 358.352 61.687 C 356 64.385 354.824 68.653 354.824 74.491 C 354.824 80.413 355.958 84.715 358.227 87.399 C 360.496 90.083 363.457 91.425 367.109 91.425 C 370.042 91.425 372.49 90.526 374.455 88.727 C 376.42 86.929 377.665 84.162 378.191 80.426 Z" style="fill: rgb(255, 0, 87);"/><path d="M 389.151 74.532 C 389.151 66.37 391.42 60.325 395.957 56.395 C 399.748 53.131 404.369 51.498 409.82 51.498 C 415.879 51.498 420.832 53.484 424.678 57.454 C 428.524 61.424 430.447 66.91 430.447 73.91 C 430.447 79.582 429.596 84.044 427.895 87.295 C 426.193 90.547 423.717 93.071 420.466 94.869 C 417.215 96.668 413.666 97.567 409.82 97.567 C 403.649 97.567 398.662 95.589 394.858 91.632 C 391.053 87.676 389.151 81.976 389.151 74.532 Z M 396.829 74.532 C 396.829 80.177 398.06 84.404 400.523 87.212 C 402.986 90.021 406.085 91.425 409.82 91.425 C 413.527 91.425 416.612 90.014 419.075 87.191 C 421.538 84.369 422.769 80.067 422.769 74.283 C 422.769 68.833 421.531 64.703 419.054 61.894 C 416.578 59.086 413.5 57.682 409.82 57.682 C 406.085 57.682 402.986 59.08 400.523 61.874 C 398.06 64.669 396.829 68.888 396.829 74.532 Z" style="fill: rgb(255, 0, 87);"/><path d="M 439.201 96.571 L 439.201 52.494 L 445.925 52.494 L 445.925 58.761 C 449.162 53.919 453.838 51.498 459.953 51.498 C 462.609 51.498 465.051 51.976 467.279 52.93 C 469.506 53.885 471.173 55.137 472.28 56.686 C 473.387 58.236 474.161 60.076 474.604 62.206 C 474.881 63.59 475.019 66.011 475.019 69.469 L 475.019 96.571 L 467.548 96.571 L 467.548 69.759 C 467.548 66.716 467.258 64.44 466.677 62.932 C 466.096 61.424 465.065 60.221 463.585 59.321 C 462.104 58.422 460.368 57.972 458.376 57.972 C 455.194 57.972 452.448 58.982 450.137 61.002 C 447.827 63.022 446.672 66.855 446.672 72.499 L 446.672 96.571 L 439.201 96.571 Z" style="fill: rgb(255, 0, 87);"/></svg>
